<?xml version="1.0" standalone="no"?>
<!DOCTYPE svg PUBLIC "-//W3C//DTD SVG 20010904//EN"
 "http://www.w3.org/TR/2001/REC-SVG-20010904/DTD/svg10.dtd">
<svg version="1.0" xmlns="http://www.w3.org/2000/svg"
 width="80.000000pt" height="80.000000pt" viewBox="0 0 80.000000 80.000000"
 preserveAspectRatio="xMidYMid meet">
<metadata>
Created by potrace 1.10, written by Peter Selinger 2001-2011
</metadata>
<g transform="translate(0.000000,80.000000) scale(0.100000,-0.100000)"
fill="currentColor" stroke="currentColor">
<path d="M70 730 c-18 -18 -20 -33 -20 -150 l0 -130 150 0 150 0 0 150 0 150
-130 0 c-117 0 -132 -2 -150 -20z m230 -130 l0 -100 -100 0 -100 0 0 100 0
100 100 0 100 0 0 -100z"/>
<path d="M450 600 l0 -150 130 0 c171 0 170 -1 170 150 0 151 1 150 -170 150
l-130 0 0 -150z m250 0 l0 -100 -100 0 -100 0 0 100 0 100 100 0 100 0 0 -100z"/>
<path d="M50 220 c0 -171 -1 -170 150 -170 151 0 150 -1 150 170 l0 130 -150
0 -150 0 0 -130z m250 -20 l0 -100 -100 0 -100 0 0 100 0 100 100 0 100 0 0
-100z"/>
</g>
</svg>
